<?xml version="1.0" encoding="UTF-8" standalone="no"?>
<!DOCTYPE svg PUBLIC "-//W3C//DTD SVG 1.1//EN"
 "http://www.w3.org/Graphics/SVG/1.1/DTD/svg11.dtd">
<!-- Generated by graphviz version 2.30.0 (20130203.1549)
 -->
<!-- Title: g Pages: 1 -->
<svg width="994pt" height="1178pt"
 viewBox="0.00 0.00 994.00 1178.00" xmlns="http://www.w3.org/2000/svg" xmlns:xlink="http://www.w3.org/1999/xlink">
<g id="graph0" class="graph" transform="scale(1 1) rotate(0) translate(4 1174)">
<title>g</title>
<polygon fill="white" stroke="white" points="-4,5 -4,-1174 991,-1174 991,5 -4,5"/>
<!-- BOLT&#45;678 -->
<g id="node1" class="node"><title>BOLT&#45;678</title>
<text text-anchor="middle" x="41" y="-662.3" font-family="Times,serif" font-size="14.00">BOLT&#45;678</text>
</g>
<!-- BOLT&#45;680 -->
<g id="node2" class="node"><title>BOLT&#45;680</title>
<text text-anchor="middle" x="267" y="-662.3" font-family="Times,serif" font-size="14.00">BOLT&#45;680</text>
</g>
<!-- BOLT&#45;678&#45;&gt;BOLT&#45;680 -->
<g id="edge1" class="edge"><title>BOLT&#45;678&#45;&gt;BOLT&#45;680</title>
<path fill="none" stroke="black" d="M82.0467,-666C119.438,-666 175.385,-666 215.757,-666"/>
<polygon fill="black" stroke="black" points="215.923,-669.5 225.923,-666 215.923,-662.5 215.923,-669.5"/>
</g>
<!-- MCOL&#45;78 -->
<g id="node3" class="node"><title>MCOL&#45;78</title>
<text text-anchor="middle" x="493" y="-1148.3" font-family="Times,serif" font-size="14.00">MCOL&#45;78</text>
</g>
<!-- BOLT&#45;680&#45;&gt;MCOL&#45;78 -->
<g id="edge2" class="edge"><title>BOLT&#45;680&#45;&gt;MCOL&#45;78</title>
<path fill="none" stroke="black" d="M271.275,-684.163C283.904,-749.976 334.71,-979.706 452,-1125 452.474,-1125.59 452.963,-1126.17 453.468,-1126.74"/>
<polygon fill="black" stroke="black" points="451.061,-1129.28 460.694,-1133.69 455.915,-1124.23 451.061,-1129.28"/>
</g>
<!-- MCOL&#45;75 -->
<g id="node4" class="node"><title>MCOL&#45;75</title>
<text text-anchor="middle" x="493" y="-1094.3" font-family="Times,serif" font-size="14.00">MCOL&#45;75</text>
</g>
<!-- BOLT&#45;680&#45;&gt;MCOL&#45;75 -->
<g id="edge3" class="edge"><title>BOLT&#45;680&#45;&gt;MCOL&#45;75</title>
<path fill="none" stroke="black" d="M272.399,-684.079C287.884,-744.72 344.811,-944.191 452,-1071 452.592,-1071.7 453.206,-1072.39 453.839,-1073.07"/>
<polygon fill="black" stroke="black" points="451.515,-1075.69 461.235,-1079.9 456.266,-1070.55 451.515,-1075.69"/>
</g>
<!-- MCOL&#45;63 -->
<g id="node5" class="node"><title>MCOL&#45;63</title>
<text text-anchor="middle" x="493" y="-1040.3" font-family="Times,serif" font-size="14.00">MCOL&#45;63</text>
</g>
<!-- BOLT&#45;680&#45;&gt;MCOL&#45;63 -->
<g id="edge4" class="edge"><title>BOLT&#45;680&#45;&gt;MCOL&#45;63</title>
<path fill="none" stroke="black" d="M273.95,-684.3C292.674,-739.721 354.965,-908.558 452,-1017 452.611,-1017.68 453.243,-1018.36 453.893,-1019.02"/>
<polygon fill="black" stroke="black" points="451.624,-1021.69 461.408,-1025.75 456.294,-1016.47 451.624,-1021.69"/>
</g>
<!-- MCOL&#45;42 -->
<g id="node6" class="node"><title>MCOL&#45;42</title>
<text text-anchor="middle" x="493" y="-986.3" font-family="Times,serif" font-size="14.00">MCOL&#45;42</text>
</g>
<!-- BOLT&#45;680&#45;&gt;MCOL&#45;42 -->
<g id="edge5" class="edge"><title>BOLT&#45;680&#45;&gt;MCOL&#45;42</title>
<path fill="none" stroke="black" d="M275.916,-684.173C298.059,-733.501 364.759,-872.28 452,-963 452.755,-963.785 453.536,-964.56 454.34,-965.324"/>
<polygon fill="black" stroke="black" points="452.15,-968.056 462.034,-971.872 456.687,-962.725 452.15,-968.056"/>
</g>
<!-- MCOL&#45;41 -->
<g id="node7" class="node"><title>MCOL&#45;41</title>
<text text-anchor="middle" x="493" y="-932.3" font-family="Times,serif" font-size="14.00">MCOL&#45;41</text>
</g>
<!-- BOLT&#45;680&#45;&gt;MCOL&#45;41 -->
<g id="edge6" class="edge"><title>BOLT&#45;680&#45;&gt;MCOL&#45;41</title>
<path fill="none" stroke="black" d="M278.747,-684.064C304.696,-726.694 374.39,-835.497 452,-909 452.924,-909.875 453.879,-910.741 454.858,-911.597"/>
<polygon fill="black" stroke="black" points="452.734,-914.38 462.724,-917.908 457.115,-908.92 452.734,-914.38"/>
</g>
<!-- MCOL&#45;32 -->
<g id="node8" class="node"><title>MCOL&#45;32</title>
<text text-anchor="middle" x="493" y="-878.3" font-family="Times,serif" font-size="14.00">MCOL&#45;32</text>
</g>
<!-- BOLT&#45;680&#45;&gt;MCOL&#45;32 -->
<g id="edge7" class="edge"><title>BOLT&#45;680&#45;&gt;MCOL&#45;32</title>
<path fill="none" stroke="black" d="M283.39,-684.133C313.68,-719.27 384.014,-798.168 452,-855 453.125,-855.94 454.283,-856.878 455.464,-857.81"/>
<polygon fill="black" stroke="black" points="453.393,-860.631 463.496,-863.821 457.587,-855.027 453.393,-860.631"/>
</g>
<!-- MCOL&#45;17 -->
<g id="node9" class="node"><title>MCOL&#45;17</title>
<text text-anchor="middle" x="493" y="-824.3" font-family="Times,serif" font-size="14.00">MCOL&#45;17</text>
</g>
<!-- BOLT&#45;680&#45;&gt;MCOL&#45;17 -->
<g id="edge8" class="edge"><title>BOLT&#45;680&#45;&gt;MCOL&#45;17</title>
<path fill="none" stroke="black" d="M292.186,-684.213C327.155,-710.44 394.007,-760.177 452,-801 453.413,-801.995 454.858,-803.004 456.321,-804.02"/>
<polygon fill="black" stroke="black" points="454.567,-807.062 464.791,-809.843 458.533,-801.294 454.567,-807.062"/>
</g>
<!-- MCOL&#45;13 -->
<g id="node10" class="node"><title>MCOL&#45;13</title>
<text text-anchor="middle" x="493" y="-770.3" font-family="Times,serif" font-size="14.00">MCOL&#45;13</text>
</g>
<!-- BOLT&#45;680&#45;&gt;MCOL&#45;13 -->
<g id="edge9" class="edge"><title>BOLT&#45;680&#45;&gt;MCOL&#45;13</title>
<path fill="none" stroke="black" d="M305.493,-684.077C343.934,-702.611 403.808,-731.479 445.303,-751.485"/>
<polygon fill="black" stroke="black" points="443.857,-754.674 454.385,-755.864 446.897,-748.369 443.857,-754.674"/>
</g>
<!-- MCOL&#45;12 -->
<g id="node11" class="node"><title>MCOL&#45;12</title>
<text text-anchor="middle" x="493" y="-716.3" font-family="Times,serif" font-size="14.00">MCOL&#45;12</text>
</g>
<!-- BOLT&#45;680&#45;&gt;MCOL&#45;12 -->
<g id="edge10" class="edge"><title>BOLT&#45;680&#45;&gt;MCOL&#45;12</title>
<path fill="none" stroke="black" d="M308.047,-675.654C345.982,-684.799 403.015,-698.548 443.507,-708.31"/>
<polygon fill="black" stroke="black" points="442.882,-711.759 453.423,-710.7 444.522,-704.954 442.882,-711.759"/>
</g>
<!-- MCOL&#45;10 -->
<g id="node12" class="node"><title>MCOL&#45;10</title>
<text text-anchor="middle" x="493" y="-662.3" font-family="Times,serif" font-size="14.00">MCOL&#45;10</text>
</g>
<!-- BOLT&#45;680&#45;&gt;MCOL&#45;10 -->
<g id="edge11" class="edge"><title>BOLT&#45;680&#45;&gt;MCOL&#45;10</title>
<path fill="none" stroke="black" d="M308.047,-666C345.901,-666 402.773,-666 443.249,-666"/>
<polygon fill="black" stroke="black" points="443.423,-669.5 453.423,-666 443.423,-662.5 443.423,-669.5"/>
</g>
<!-- MCOL&#45;8 -->
<g id="node13" class="node"><title>MCOL&#45;8</title>
<text text-anchor="middle" x="493" y="-608.3" font-family="Times,serif" font-size="14.00">MCOL&#45;8</text>
</g>
<!-- BOLT&#45;680&#45;&gt;MCOL&#45;8 -->
<g id="edge12" class="edge"><title>BOLT&#45;680&#45;&gt;MCOL&#45;8</title>
<path fill="none" stroke="black" d="M308.047,-656.346C347.258,-646.893 406.874,-632.522 447.536,-622.719"/>
<polygon fill="black" stroke="black" points="448.54,-626.077 457.441,-620.331 446.899,-619.272 448.54,-626.077"/>
</g>
<!-- MCOL&#45;7 -->
<g id="node14" class="node"><title>MCOL&#45;7</title>
<text text-anchor="middle" x="493" y="-554.3" font-family="Times,serif" font-size="14.00">MCOL&#45;7</text>
</g>
<!-- BOLT&#45;680&#45;&gt;MCOL&#45;7 -->
<g id="edge13" class="edge"><title>BOLT&#45;680&#45;&gt;MCOL&#45;7</title>
<path fill="none" stroke="black" d="M305.493,-647.923C344.861,-628.942 406.706,-599.124 448.27,-579.084"/>
<polygon fill="black" stroke="black" points="449.846,-582.21 457.334,-574.714 446.806,-575.904 449.846,-582.21"/>
</g>
<!-- BOLT&#45;824 -->
<g id="node15" class="node"><title>BOLT&#45;824</title>
<text text-anchor="middle" x="493" y="-500.3" font-family="Times,serif" font-size="14.00">BOLT&#45;824</text>
</g>
<!-- BOLT&#45;680&#45;&gt;BOLT&#45;824 -->
<g id="edge14" class="edge"><title>BOLT&#45;680&#45;&gt;BOLT&#45;824</title>
<path fill="none" stroke="black" d="M292.186,-647.787C327.155,-621.56 394.007,-571.823 452,-531 453.413,-530.005 454.858,-528.996 456.321,-527.98"/>
<polygon fill="black" stroke="black" points="458.533,-530.706 464.791,-522.157 454.567,-524.938 458.533,-530.706"/>
</g>
<!-- BOLT&#45;732 -->
<g id="node16" class="node"><title>BOLT&#45;732</title>
<text text-anchor="middle" x="493" y="-446.3" font-family="Times,serif" font-size="14.00">BOLT&#45;732</text>
</g>
<!-- BOLT&#45;680&#45;&gt;BOLT&#45;732 -->
<g id="edge15" class="edge"><title>BOLT&#45;680&#45;&gt;BOLT&#45;732</title>
<path fill="none" stroke="black" d="M283.39,-647.867C313.68,-612.73 384.014,-533.832 452,-477 453.125,-476.06 454.283,-475.122 455.464,-474.19"/>
<polygon fill="black" stroke="black" points="457.587,-476.973 463.496,-468.179 453.393,-471.369 457.587,-476.973"/>
</g>
<!-- BOLT&#45;721 -->
<g id="node17" class="node"><title>BOLT&#45;721</title>
<text text-anchor="middle" x="493" y="-392.3" font-family="Times,serif" font-size="14.00">BOLT&#45;721</text>
</g>
<!-- BOLT&#45;680&#45;&gt;BOLT&#45;721 -->
<g id="edge16" class="edge"><title>BOLT&#45;680&#45;&gt;BOLT&#45;721</title>
<path fill="none" stroke="black" d="M278.747,-647.936C304.696,-605.306 374.39,-496.503 452,-423 452.924,-422.125 453.879,-421.259 454.858,-420.403"/>
<polygon fill="black" stroke="black" points="457.115,-423.08 462.724,-414.092 452.734,-417.62 457.115,-423.08"/>
</g>
<!-- BOLT&#45;706 -->
<g id="node18" class="node"><title>BOLT&#45;706</title>
<text text-anchor="middle" x="493" y="-338.3" font-family="Times,serif" font-size="14.00">BOLT&#45;706</text>
</g>
<!-- BOLT&#45;680&#45;&gt;BOLT&#45;706 -->
<g id="edge17" class="edge"><title>BOLT&#45;680&#45;&gt;BOLT&#45;706</title>
<path fill="none" stroke="black" d="M275.916,-647.827C298.059,-598.499 364.759,-459.72 452,-369 452.755,-368.215 453.536,-367.44 454.34,-366.676"/>
<polygon fill="black" stroke="black" points="456.687,-369.275 462.034,-360.128 452.15,-363.944 456.687,-369.275"/>
</g>
<!-- BOLT&#45;695 -->
<g id="node19" class="node"><title>BOLT&#45;695</title>
<text text-anchor="middle" x="493" y="-284.3" font-family="Times,serif" font-size="14.00">BOLT&#45;695</text>
</g>
<!-- BOLT&#45;680&#45;&gt;BOLT&#45;695 -->
<g id="edge18" class="edge"><title>BOLT&#45;680&#45;&gt;BOLT&#45;695</title>
<path fill="none" stroke="black" d="M273.95,-647.7C292.674,-592.279 354.965,-423.442 452,-315 452.611,-314.317 453.243,-313.643 453.893,-312.979"/>
<polygon fill="black" stroke="black" points="456.294,-315.527 461.408,-306.248 451.624,-310.312 456.294,-315.527"/>
</g>
<!-- BOLT&#45;691 -->
<g id="node20" class="node"><title>BOLT&#45;691</title>
<text text-anchor="middle" x="493" y="-230.3" font-family="Times,serif" font-size="14.00">BOLT&#45;691</text>
</g>
<!-- BOLT&#45;680&#45;&gt;BOLT&#45;691 -->
<g id="edge19" class="edge"><title>BOLT&#45;680&#45;&gt;BOLT&#45;691</title>
<path fill="none" stroke="black" d="M272.399,-647.921C287.884,-587.28 344.811,-387.809 452,-261 452.592,-260.3 453.206,-259.611 453.839,-258.932"/>
<polygon fill="black" stroke="black" points="456.266,-261.455 461.235,-252.097 451.515,-256.314 456.266,-261.455"/>
</g>
<!-- BOLT&#45;690 -->
<g id="node21" class="node"><title>BOLT&#45;690</title>
<text text-anchor="middle" x="493" y="-176.3" font-family="Times,serif" font-size="14.00">BOLT&#45;690</text>
</g>
<!-- BOLT&#45;680&#45;&gt;BOLT&#45;690 -->
<g id="edge20" class="edge"><title>BOLT&#45;680&#45;&gt;BOLT&#45;690</title>
<path fill="none" stroke="black" d="M271.275,-647.837C283.904,-582.024 334.71,-352.294 452,-207 452.474,-206.413 452.963,-205.834 453.468,-205.264"/>
<polygon fill="black" stroke="black" points="455.915,-207.766 460.694,-198.311 451.061,-202.722 455.915,-207.766"/>
</g>
<!-- MCOL&#45;72 -->
<g id="node46" class="node"><title>MCOL&#45;72</title>
<text text-anchor="middle" x="719" y="-1148.3" font-family="Times,serif" font-size="14.00">MCOL&#45;72</text>
</g>
<!-- MCOL&#45;63&#45;&gt;MCOL&#45;72 -->
<g id="edge45" class="edge"><title>MCOL&#45;63&#45;&gt;MCOL&#45;72</title>
<path fill="none" stroke="black" d="M531.493,-1062.08C569.934,-1080.61 629.808,-1109.48 671.303,-1129.49"/>
<polygon fill="black" stroke="black" points="669.857,-1132.67 680.385,-1133.86 672.897,-1126.37 669.857,-1132.67"/>
</g>
<!-- MCOL&#45;71 -->
<g id="node47" class="node"><title>MCOL&#45;71</title>
<text text-anchor="middle" x="719" y="-1094.3" font-family="Times,serif" font-size="14.00">MCOL&#45;71</text>
</g>
<!-- MCOL&#45;63&#45;&gt;MCOL&#45;71 -->
<g id="edge46" class="edge"><title>MCOL&#45;63&#45;&gt;MCOL&#45;71</title>
<path fill="none" stroke="black" d="M532.507,-1053.28C570.411,-1062.42 628.42,-1076.4 669.461,-1086.3"/>
<polygon fill="black" stroke="black" points="668.704,-1089.72 679.246,-1088.66 670.345,-1082.91 668.704,-1089.72"/>
</g>
<!-- MCOL&#45;70 -->
<g id="node48" class="node"><title>MCOL&#45;70</title>
<text text-anchor="middle" x="719" y="-1040.3" font-family="Times,serif" font-size="14.00">MCOL&#45;70</text>
</g>
<!-- MCOL&#45;63&#45;&gt;MCOL&#45;70 -->
<g id="edge47" class="edge"><title>MCOL&#45;63&#45;&gt;MCOL&#45;70</title>
<path fill="none" stroke="black" d="M532.507,-1044C570.33,-1044 628.175,-1044 669.2,-1044"/>
<polygon fill="black" stroke="black" points="669.246,-1047.5 679.246,-1044 669.246,-1040.5 669.246,-1047.5"/>
</g>
<!-- MCOL&#45;36 -->
<g id="node43" class="node"><title>MCOL&#45;36</title>
<text text-anchor="middle" x="719" y="-986.3" font-family="Times,serif" font-size="14.00">MCOL&#45;36</text>
</g>
<!-- MCOL&#45;32&#45;&gt;MCOL&#45;36 -->
<g id="edge42" class="edge"><title>MCOL&#45;32&#45;&gt;MCOL&#45;36</title>
<path fill="none" stroke="black" d="M531.493,-900.077C569.934,-918.611 629.808,-947.479 671.303,-967.485"/>
<polygon fill="black" stroke="black" points="669.857,-970.674 680.385,-971.864 672.897,-964.369 669.857,-970.674"/>
</g>
<!-- MCOL&#45;35 -->
<g id="node44" class="node"><title>MCOL&#45;35</title>
<text text-anchor="middle" x="719" y="-932.3" font-family="Times,serif" font-size="14.00">MCOL&#45;35</text>
</g>
<!-- MCOL&#45;32&#45;&gt;MCOL&#45;35 -->
<g id="edge43" class="edge"><title>MCOL&#45;32&#45;&gt;MCOL&#45;35</title>
<path fill="none" stroke="black" d="M532.507,-891.283C570.411,-900.42 628.42,-914.405 669.461,-924.299"/>
<polygon fill="black" stroke="black" points="668.704,-927.716 679.246,-926.657 670.345,-920.911 668.704,-927.716"/>
</g>
<!-- MCOL&#45;34 -->
<g id="node45" class="node"><title>MCOL&#45;34</title>
<text text-anchor="middle" x="719" y="-878.3" font-family="Times,serif" font-size="14.00">MCOL&#45;34</text>
</g>
<!-- MCOL&#45;32&#45;&gt;MCOL&#45;34 -->
<g id="edge44" class="edge"><title>MCOL&#45;32&#45;&gt;MCOL&#45;34</title>
<path fill="none" stroke="black" d="M532.507,-882C570.33,-882 628.175,-882 669.2,-882"/>
<polygon fill="black" stroke="black" points="669.246,-885.5 679.246,-882 669.246,-878.5 669.246,-885.5"/>
</g>
<!-- MCOL&#45;16 -->
<g id="node39" class="node"><title>MCOL&#45;16</title>
<text text-anchor="middle" x="719" y="-824.3" font-family="Times,serif" font-size="14.00">MCOL&#45;16</text>
</g>
<!-- MCOL&#45;13&#45;&gt;MCOL&#45;16 -->
<g id="edge38" class="edge"><title>MCOL&#45;13&#45;&gt;MCOL&#45;16</title>
<path fill="none" stroke="black" d="M532.507,-783.283C570.411,-792.42 628.42,-806.405 669.461,-816.299"/>
<polygon fill="black" stroke="black" points="668.704,-819.716 679.246,-818.657 670.345,-812.911 668.704,-819.716"/>
</g>
<!-- MCOL&#45;14 -->
<g id="node40" class="node"><title>MCOL&#45;14</title>
<text text-anchor="middle" x="719" y="-770.3" font-family="Times,serif" font-size="14.00">MCOL&#45;14</text>
</g>
<!-- MCOL&#45;13&#45;&gt;MCOL&#45;14 -->
<g id="edge39" class="edge"><title>MCOL&#45;13&#45;&gt;MCOL&#45;14</title>
<path fill="none" stroke="black" d="M532.507,-774C570.33,-774 628.175,-774 669.2,-774"/>
<polygon fill="black" stroke="black" points="669.246,-777.5 679.246,-774 669.246,-770.5 669.246,-777.5"/>
</g>
<!-- MCOL&#45;4 -->
<g id="node41" class="node"><title>MCOL&#45;4</title>
<text text-anchor="middle" x="719" y="-716.3" font-family="Times,serif" font-size="14.00">MCOL&#45;4</text>
</g>
<!-- MCOL&#45;13&#45;&gt;MCOL&#45;4 -->
<g id="edge40" class="edge"><title>MCOL&#45;13&#45;&gt;MCOL&#45;4</title>
<path fill="none" stroke="black" d="M532.507,-764.717C571.682,-755.273 632.334,-740.652 673.531,-730.72"/>
<polygon fill="black" stroke="black" points="674.401,-734.111 683.302,-728.365 672.761,-727.306 674.401,-734.111"/>
</g>
<!-- MCOL&#45;26 -->
<g id="node35" class="node"><title>MCOL&#45;26</title>
<text text-anchor="middle" x="719" y="-662.3" font-family="Times,serif" font-size="14.00">MCOL&#45;26</text>
</g>
<!-- MCOL&#45;12&#45;&gt;MCOL&#45;26 -->
<g id="edge34" class="edge"><title>MCOL&#45;12&#45;&gt;MCOL&#45;26</title>
<path fill="none" stroke="black" d="M532.507,-710.717C570.411,-701.58 628.42,-687.595 669.461,-677.701"/>
<polygon fill="black" stroke="black" points="670.345,-681.089 679.246,-675.343 668.704,-674.284 670.345,-681.089"/>
</g>
<!-- MCOL&#45;23 -->
<g id="node34" class="node"><title>MCOL&#45;23</title>
<text text-anchor="middle" x="719" y="-608.3" font-family="Times,serif" font-size="14.00">MCOL&#45;23</text>
</g>
<!-- BOLT&#45;721&#45;&gt;MCOL&#45;23 -->
<g id="edge33" class="edge"><title>BOLT&#45;721&#45;&gt;MCOL&#45;23</title>
<path fill="none" stroke="black" d="M522.63,-414.031C526.569,-416.88 530.469,-419.91 534,-423 606.49,-486.444 605.51,-521.556 678,-585 679.103,-585.966 680.243,-586.925 681.408,-587.876"/>
<polygon fill="black" stroke="black" points="679.301,-590.671 689.37,-593.969 683.556,-585.112 679.301,-590.671"/>
</g>
<!-- BOLT&#45;860 -->
<g id="node23" class="node"><title>BOLT&#45;860</title>
<text text-anchor="middle" x="719" y="-554.3" font-family="Times,serif" font-size="14.00">BOLT&#45;860</text>
</g>
<!-- BOLT&#45;706&#45;&gt;BOLT&#45;860 -->
<g id="edge22" class="edge"><title>BOLT&#45;706&#45;&gt;BOLT&#45;860</title>
<path fill="none" stroke="black" d="M522.63,-360.031C526.569,-362.88 530.469,-365.91 534,-369 606.49,-432.444 605.51,-467.556 678,-531 679.103,-531.966 680.243,-532.925 681.408,-533.876"/>
<polygon fill="black" stroke="black" points="679.301,-536.671 689.37,-539.969 683.556,-531.112 679.301,-536.671"/>
</g>
<!-- BOLT&#45;843 -->
<g id="node24" class="node"><title>BOLT&#45;843</title>
<text text-anchor="middle" x="719" y="-500.3" font-family="Times,serif" font-size="14.00">BOLT&#45;843</text>
</g>
<!-- BOLT&#45;706&#45;&gt;BOLT&#45;843 -->
<g id="edge23" class="edge"><title>BOLT&#45;706&#45;&gt;BOLT&#45;843</title>
<path fill="none" stroke="black" d="M521.236,-360.119C525.532,-363.053 529.905,-366.085 534,-369 599.174,-415.393 612.826,-430.607 678,-477 679.408,-478.002 680.848,-479.018 682.307,-480.039"/>
<polygon fill="black" stroke="black" points="680.547,-483.077 690.764,-485.881 684.525,-477.317 680.547,-483.077"/>
</g>
<!-- BOLT&#45;814 -->
<g id="node25" class="node"><title>BOLT&#45;814</title>
<text text-anchor="middle" x="719" y="-446.3" font-family="Times,serif" font-size="14.00">BOLT&#45;814</text>
</g>
<!-- BOLT&#45;706&#45;&gt;BOLT&#45;814 -->
<g id="edge24" class="edge"><title>BOLT&#45;706&#45;&gt;BOLT&#45;814</title>
<path fill="none" stroke="black" d="M531.493,-360.077C569.934,-378.611 629.808,-407.479 671.303,-427.485"/>
<polygon fill="black" stroke="black" points="669.857,-430.674 680.385,-431.864 672.897,-424.369 669.857,-430.674"/>
</g>
<!-- BOLT&#45;813 -->
<g id="node26" class="node"><title>BOLT&#45;813</title>
<text text-anchor="middle" x="719" y="-392.3" font-family="Times,serif" font-size="14.00">BOLT&#45;813</text>
</g>
<!-- BOLT&#45;706&#45;&gt;BOLT&#45;813 -->
<g id="edge25" class="edge"><title>BOLT&#45;706&#45;&gt;BOLT&#45;813</title>
<path fill="none" stroke="black" d="M534.047,-351.654C571.518,-360.687 627.623,-374.213 668.014,-383.95"/>
<polygon fill="black" stroke="black" points="667.381,-387.397 677.923,-386.339 669.022,-380.592 667.381,-387.397"/>
</g>
<!-- BOLT&#45;812 -->
<g id="node27" class="node"><title>BOLT&#45;812</title>
<text text-anchor="middle" x="719" y="-338.3" font-family="Times,serif" font-size="14.00">BOLT&#45;812</text>
</g>
<!-- BOLT&#45;706&#45;&gt;BOLT&#45;812 -->
<g id="edge26" class="edge"><title>BOLT&#45;706&#45;&gt;BOLT&#45;812</title>
<path fill="none" stroke="black" d="M534.047,-342C571.438,-342 627.385,-342 667.757,-342"/>
<polygon fill="black" stroke="black" points="667.923,-345.5 677.923,-342 667.923,-338.5 667.923,-345.5"/>
</g>
<!-- BOLT&#45;811 -->
<g id="node28" class="node"><title>BOLT&#45;811</title>
<text text-anchor="middle" x="719" y="-284.3" font-family="Times,serif" font-size="14.00">BOLT&#45;811</text>
</g>
<!-- BOLT&#45;706&#45;&gt;BOLT&#45;811 -->
<g id="edge27" class="edge"><title>BOLT&#45;706&#45;&gt;BOLT&#45;811</title>
<path fill="none" stroke="black" d="M534.047,-332.346C571.518,-323.313 627.623,-309.787 668.014,-300.05"/>
<polygon fill="black" stroke="black" points="669.022,-303.408 677.923,-297.661 667.381,-296.603 669.022,-303.408"/>
</g>
<!-- BOLT&#45;810 -->
<g id="node29" class="node"><title>BOLT&#45;810</title>
<text text-anchor="middle" x="719" y="-230.3" font-family="Times,serif" font-size="14.00">BOLT&#45;810</text>
</g>
<!-- BOLT&#45;706&#45;&gt;BOLT&#45;810 -->
<g id="edge28" class="edge"><title>BOLT&#45;706&#45;&gt;BOLT&#45;810</title>
<path fill="none" stroke="black" d="M531.493,-323.923C569.934,-305.389 629.808,-276.521 671.303,-256.515"/>
<polygon fill="black" stroke="black" points="672.897,-259.631 680.385,-252.136 669.857,-253.326 672.897,-259.631"/>
</g>
<!-- BOLT&#45;809 -->
<g id="node30" class="node"><title>BOLT&#45;809</title>
<text text-anchor="middle" x="719" y="-176.3" font-family="Times,serif" font-size="14.00">BOLT&#45;809</text>
</g>
<!-- BOLT&#45;706&#45;&gt;BOLT&#45;809 -->
<g id="edge29" class="edge"><title>BOLT&#45;706&#45;&gt;BOLT&#45;809</title>
<path fill="none" stroke="black" d="M521.236,-323.881C525.532,-320.947 529.905,-317.915 534,-315 599.174,-268.607 612.826,-253.393 678,-207 679.408,-205.998 680.848,-204.982 682.307,-203.961"/>
<polygon fill="black" stroke="black" points="684.525,-206.683 690.764,-198.119 680.547,-200.923 684.525,-206.683"/>
</g>
<!-- BOLT&#45;808 -->
<g id="node31" class="node"><title>BOLT&#45;808</title>
<text text-anchor="middle" x="719" y="-122.3" font-family="Times,serif" font-size="14.00">BOLT&#45;808</text>
</g>
<!-- BOLT&#45;706&#45;&gt;BOLT&#45;808 -->
<g id="edge30" class="edge"><title>BOLT&#45;706&#45;&gt;BOLT&#45;808</title>
<path fill="none" stroke="black" d="M522.63,-323.969C526.569,-321.12 530.469,-318.09 534,-315 606.49,-251.556 605.51,-216.444 678,-153 679.103,-152.034 680.243,-151.075 681.408,-150.124"/>
<polygon fill="black" stroke="black" points="683.556,-152.888 689.37,-144.031 679.301,-147.329 683.556,-152.888"/>
</g>
<!-- BOLT&#45;711 -->
<g id="node32" class="node"><title>BOLT&#45;711</title>
<text text-anchor="middle" x="719" y="-68.3" font-family="Times,serif" font-size="14.00">BOLT&#45;711</text>
</g>
<!-- BOLT&#45;706&#45;&gt;BOLT&#45;711 -->
<g id="edge31" class="edge"><title>BOLT&#45;706&#45;&gt;BOLT&#45;711</title>
<path fill="none" stroke="black" d="M523.867,-323.775C527.454,-321.038 530.928,-318.09 534,-315 615.35,-233.182 596.65,-180.818 678,-99 678.768,-98.2276 679.561,-97.464 680.375,-96.7104"/>
<polygon fill="black" stroke="black" points="682.705,-99.324 688.133,-90.2248 678.216,-93.9535 682.705,-99.324"/>
</g>
<!-- MCOL&#45;24 -->
<g id="node22" class="node"><title>MCOL&#45;24</title>
<text text-anchor="middle" x="719" y="-14.3" font-family="Times,serif" font-size="14.00">MCOL&#45;24</text>
</g>
<!-- BOLT&#45;695&#45;&gt;MCOL&#45;24 -->
<g id="edge21" class="edge"><title>BOLT&#45;695&#45;&gt;MCOL&#45;24</title>
<path fill="none" stroke="black" d="M523.867,-269.775C527.454,-267.038 530.928,-264.09 534,-261 615.35,-179.182 596.65,-126.818 678,-45 678.768,-44.2276 679.561,-43.464 680.375,-42.7104"/>
<polygon fill="black" stroke="black" points="682.705,-45.324 688.133,-36.2248 678.216,-39.9535 682.705,-45.324"/>
</g>
<!-- BOLT&#45;851 -->
<g id="node33" class="node"><title>BOLT&#45;851</title>
<text text-anchor="middle" x="945" y="-68.3" font-family="Times,serif" font-size="14.00">BOLT&#45;851</text>
</g>
<!-- BOLT&#45;711&#45;&gt;BOLT&#45;851 -->
<g id="edge32" class="edge"><title>BOLT&#45;711&#45;&gt;BOLT&#45;851</title>
<path fill="none" stroke="black" d="M760.047,-72C797.438,-72 853.385,-72 893.757,-72"/>
<polygon fill="black" stroke="black" points="893.923,-75.5001 903.923,-72 893.923,-68.5001 893.923,-75.5001"/>
</g>
<!-- MCOL&#45;45 -->
<g id="node36" class="node"><title>MCOL&#45;45</title>
<text text-anchor="middle" x="945" y="-716.3" font-family="Times,serif" font-size="14.00">MCOL&#45;45</text>
</g>
<!-- MCOL&#45;26&#45;&gt;MCOL&#45;45 -->
<g id="edge35" class="edge"><title>MCOL&#45;26&#45;&gt;MCOL&#45;45</title>
<path fill="none" stroke="black" d="M758.507,-675.283C796.411,-684.42 854.42,-698.405 895.461,-708.299"/>
<polygon fill="black" stroke="black" points="894.704,-711.716 905.246,-710.657 896.345,-704.911 894.704,-711.716"/>
</g>
<!-- MCOL&#45;44 -->
<g id="node37" class="node"><title>MCOL&#45;44</title>
<text text-anchor="middle" x="945" y="-662.3" font-family="Times,serif" font-size="14.00">MCOL&#45;44</text>
</g>
<!-- MCOL&#45;26&#45;&gt;MCOL&#45;44 -->
<g id="edge36" class="edge"><title>MCOL&#45;26&#45;&gt;MCOL&#45;44</title>
<path fill="none" stroke="black" d="M758.507,-666C796.33,-666 854.175,-666 895.2,-666"/>
<polygon fill="black" stroke="black" points="895.246,-669.5 905.246,-666 895.246,-662.5 895.246,-669.5"/>
</g>
<!-- MCOL&#45;43 -->
<g id="node38" class="node"><title>MCOL&#45;43</title>
<text text-anchor="middle" x="945" y="-608.3" font-family="Times,serif" font-size="14.00">MCOL&#45;43</text>
</g>
<!-- MCOL&#45;26&#45;&gt;MCOL&#45;43 -->
<g id="edge37" class="edge"><title>MCOL&#45;26&#45;&gt;MCOL&#45;43</title>
<path fill="none" stroke="black" d="M758.507,-656.717C796.411,-647.58 854.42,-633.595 895.461,-623.701"/>
<polygon fill="black" stroke="black" points="896.345,-627.089 905.246,-621.343 894.704,-620.284 896.345,-627.089"/>
</g>
<!-- MCOL&#45;59 -->
<g id="node42" class="node"><title>MCOL&#45;59</title>
<text text-anchor="middle" x="945" y="-770.3" font-family="Times,serif" font-size="14.00">MCOL&#45;59</text>
</g>
<!-- MCOL&#45;14&#45;&gt;MCOL&#45;59 -->
<g id="edge41" class="edge"><title>MCOL&#45;14&#45;&gt;MCOL&#45;59</title>
<path fill="none" stroke="black" d="M758.507,-774C796.33,-774 854.175,-774 895.2,-774"/>
<polygon fill="black" stroke="black" points="895.246,-777.5 905.246,-774 895.246,-770.5 895.246,-777.5"/>
</g>
</g>
</svg>
